<svg xmlns="http://www.w3.org/2000/svg" viewBox="0 0 414 414"><style>.i{mix-blend-mode:overlay}.k{opacity:.3}.n{fill:#f7ddc4}.o{fill:#eaceb1}.p{fill:#f8e9db}</style><circle cx="207" cy="207" r="203.5" fill="#40403f" stroke="#4a494a" stroke-width="7"/><path fill="#e17926" d="M69.9 122l-6-7.8 11.8-7.3a41.8 41.8 0 0 0-5.8 15.1zm52.1 91.3l-2.8.2c-1.9.2-5.1-.6-7.3.1l1.4 7.1 9.6-2.9a35.8 35.8 0 0 0-.9-4.5zm-3.5 65.1l-1.8 2.2-.4 5.4 1.8-.5a64.5 64.5 0 0 1 8.4-2.1l.6-11.2a29.5 29.5 0 0 0-8.6 6.2zM315.4 81.3a268.6 268.6 0 0 0-94.3-17.7c-40.6 0-79.5 10-116.8 27.9a66.2 66.2 0 0 1 15.8 3.8c7.8-3.4 15.5-6.3 23.3-8.9a247.1 247.1 0 0 1 77.7-12.8A256.8 256.8 0 0 1 301.6 87c-19.6 42-31.5 80-36.3 115.9a255.8 255.8 0 0 0-1.2 60.4 228.7 228.7 0 0 0 11.4 50.4c-34 19.8-66.7 29.4-99.7 29.4a174.2 174.2 0 0 1-55.5-9.3 33.4 33.4 0 0 1-12.1 2.4l-.9 3.5a185.7 185.7 0 0 0 68.5 13.4c38.9 0 76.2-12.9 112-35.1-28.9-73-14-151.5 27.6-236.7zM97.9 158.4c-1.9-3.9-3.9-7.7-6-11.5-.7 1.2-1.5 4-2.9 5.1l3.7 7.1a43.4 43.4 0 0 1 5.2-.7z"/><path fill="#f78f20" d="M270.2 203.5c5-36.7 17.5-75.9 38.3-119.4a263.4 263.4 0 0 0-87.4-15.5c-35.9 0-72.2 8.2-108.2 24.5a64.2 64.2 0 0 1 29.6 16.6l1.4 1.5a12.6 12.6 0 0 1 3.3 4.7 12.7 12.7 0 0 1-.4 6.7 30.3 30.3 0 0 1-14.6 17.9c-8.2 4.4-17.5 3.5-26.4 1.6-2.5-.5-5.2-1-7.8-.4s-4.6 2.6-6.1 5.1c2.1 3.8 4.1 7.6 6 11.5a114.4 114.4 0 0 1 11.8-.4c10.1-.1 20.2-.8 30.2.8a56.9 56.9 0 0 1 13.5 3.4 14.7 14.7 0 0 1 4.7 2.7h.1a16 16 0 0 1 3.5 5.7c6.5 17.8-6.8 33.5-22.8 39.2a70 70 0 0 1-19.7 3.7 8.5 8.5 0 0 1-2.2-.1l1.1 5.8c3.7-1.1 7.4-2.2 11.2-3.1a126.7 126.7 0 0 1 16.3-3.1c4.2-.4 10.8-1.9 14.2 1.3 1.8 1.6 2.8 4 3.8 6.3a128.1 128.1 0 0 1 4.7 12.2 24.2 24.2 0 0 1 1.2 10.3c-.9 5.8-5.3 10.6-10.3 13.8-9.3 6-20.1 9.3-29.9 14.1a59.6 59.6 0 0 0-7.4 4.3l-.5 9.2a87.2 87.2 0 0 1 36.3-1.5 18 18 0 0 1 6.4 2.2c3.6 2.2 5.4 6.5 5.4 10.7s-1.7 8.2-3.8 11.8a50.1 50.1 0 0 1-25.9 20.5c-5.1 1.8-10.4 2.5-15.4 4.2a100.2 100.2 0 0 1-11 3.4 3.1 3.1 0 0 1-.2.8 182.4 182.4 0 0 0 62.6 11.5c35.1 0 69.7-10.5 105.8-32.2a227.4 227.4 0 0 1-11.4-112.3z"/><path fill="#fdcda0" d="M206.8 168.3c7.4-1.2 14.8-11.1 17-22.9s-5.1-21.6-16.4-20.6-18 12.4-16.3 24.3 8.3 20.3 15.7 19.2z"/><path fill="#e17827" d="M246 233.2c-20.9-13.4-30.4-36.2-46.7-59.1-15.5 28-21.7 56.9-41.2 79.1 32.3 1.6 61-7.7 87.9-20z"/><path fill="#c86228" d="M220.6 272.7c-26.7-24.5-36.9-61.6-76.5-83.3 6 34.1 6.9 63.9-14.8 88.9 33.8 8.1 63.7 3.9 91.3-5.6z"/><path fill="none" stroke="#e17827" stroke-miterlimit="10" stroke-width="4" d="M253.3 244c-40.4 17.8-82.8 29-129.6 21.2 7.6-44.3 1.1-86.8-29.1-125.5 51.5-23.9 109.6-38.6 177.2-27.3C250.5 159.3 241 203 253.3 244z"/><g fill="#c96328" opacity=".5"><path d="M151 116.7a4.1 4.1 0 0 0-.5-1.9l-.4-.5c-1-.8-2.5-.9-3.7-1.3l-1.7-.7-.6-.6a64.6 64.6 0 0 0-38.1-19 27.4 27.4 0 0 0-10.3.3c-14.9 3.8-26.8 23.5-24.8 38.3 1.3 9.5 8.2 15.2 15.4 20.7a4.7 4.7 0 0 0 2 1c2.3.3 3.4-4 4.4-5.4s3-4.4 6.1-5a19.3 19.3 0 0 1 7.9.6c8.8 2.1 18.1 3.1 26.4-1.1a26.6 26.6 0 0 0 6.8-4.7 4.2 4.2 0 0 0 1.4-.9 36.2 36.2 0 0 0 4.2-3.6l2.1-2.1a15.4 15.4 0 0 0 3.1-7.7 27.5 27.5 0 0 0 .3-6.4zM207.2 195.8a16 16 0 0 1 1-2.3c5.7-13.4 15.5-24.4 25.4-34.9s19.5-19.1 32.8-22.4a68 68 0 0 1 27.7.4c5.5 1 11.7 1.4 16.8 4s8.9 8 12 12.7a417 417 0 0 1 24.9 44.2c4.7 9.3 10.1 18.7 10.1 29.3a72 72 0 0 1-3.4 19.6c-5.1 17.1-12.5 33.8-19.9 49.9s-16.3 30.5-30.8 40c-21.2 14-48.1 11.4-71.9 8-4-.6-37.8-3.9-38.1-7.1-.2-1.6 10.7-5.2 12.2-5.9a91 91 0 0 0 36.4-28.2 39.8 39.8 0 0 0 6.8-15.8c1.5-8.4 4.1-16.6 8.8-23.7s11.1-12.1 11.1-21.2c0-3.2-.7-6.3-.4-9.5s1.8-6.5 4.8-7.6 4-.5 5-2.1a4 4 0 0 0 .6-2.2 58.4 58.4 0 0 1 8.9-23 67 67 0 0 1-34.8 26.9c-8.8 3.5-18.5 5.8-27.8 4s-18.2-8.5-20.1-17.8a27 27 0 0 1 1.9-15.3zM165.2 180.8a16.2 16.2 0 0 0 .1-2.2 24.3 24.3 0 0 0-1.3-8.9 5.3 5.3 0 0 0-2.8-3.4 2.8 2.8 0 0 0-1.3-.3 15.1 15.1 0 0 0-4.6-2.7 68.5 68.5 0 0 0-13.5-3.4c-10-1.6-20.1-.8-30.2-.8s-19.3 0-27.7 5-12.9 14.6-14.6 23.4-.2 17.2 4.7 24a29.6 29.6 0 0 0 34.1 9.3 6.1 6.1 0 0 0 2.2-1.3c.8-.9 1-2.2 1.6-3.3 1.5-2.9 6.5-1.4 9.1-1.5a77.1 77.1 0 0 0 19.7-3.7c8.9-3.2 17-9.5 21.3-17.5a3.1 3.1 0 0 0 1.6-1.4 8.5 8.5 0 0 0 .6-1.7 45.2 45.2 0 0 0 .8-6.3 18.3 18.3 0 0 0 .2-3.3zM177.8 234.6a24.9 24.9 0 0 0-3.5-11.6c-1.5-2.3-2.3-4.8-5.1-5.2a19.9 19.9 0 0 0-5 .7 9.7 9.7 0 0 0-1.9-2.6c-3.2-3.2-9.9-2-14.1-1.7a130.1 130.1 0 0 0-16.4 2.6 217.7 217.7 0 0 0-31.7 9.4c-9 3.5-18.8 6.8-25.5 14.1-2.5 2.8-6.8 8-7.6 11.7-2.7 12.1.7 27.1 12.6 33.3 7.1 3.7 15.7 3.2 23.7 2.1 4.2-.6 8.5-1.4 11.7-4.1 1.5-1.4 2.7-3.1 4.1-4.5 3-3.2 7-5.3 11-7.1 10-4.5 20.9-7.5 30.3-13.2 5.1-3.1 9.6-7.7 10.7-13.5a8.5 8.5 0 0 0 .3-2.3l2.7-1.3a8.4 8.4 0 0 0 3.2-2.7 6.4 6.4 0 0 0 .5-4.1zM174.7 294.9c-.8-3.2-2.2-6.9-5.7-7.8a6.4 6.4 0 0 0-2-.3l-1.4-1.1a20.2 20.2 0 0 0-6.4-2.2 85.6 85.6 0 0 0-39.6 2.4c-11.1 3.3-30.9 10.3-32.1 23.8a22.7 22.7 0 0 0 4.1 14.7c3.8 5.9 10.3 11.9 17.7 12.2 5.8.2 11.1-2 16.4-3.8s10.4-2.3 15.4-4.2a51 51 0 0 0 24.6-18.3l.8-.2a13.8 13.8 0 0 0 6.7-3.4 9.2 9.2 0 0 0 1.5-2.5c1.3-3 .8-6.3 0-9.3z"/></g><path d="M143.1 110.7a64.4 64.4 0 0 0-38-19 26 26 0 0 0-10.4.3c-14.8 3.7-26.8 23.5-24.8 38.3 1.4 9.5 8.2 15.2 15.4 20.6a4.9 4.9 0 0 0 2 1.1c2.3.3 3.4-4 4.4-5.5s3.1-4.3 6.2-4.9a18.7 18.7 0 0 1 7.8.6c8.8 2.1 18.1 3.1 26.5-1.1a30.1 30.1 0 0 0 14.9-17.4 11.8 11.8 0 0 0 .5-6.7 12.4 12.4 0 0 0-3.1-4.8z" class="n"/><path d="M132.2 141.1l2.8-1.6c-8.6-1.3-12.2-.1-14-.7s-9.4-.2-12-.9-6.1-.5-8.3-1a51.4 51.4 0 0 0-9.8-1.4c-5.1-.5-9.4-2.5-12.3-.3s-4 2.6-5.6 3.6c3 4.8 7.6 8.5 12.3 12.1a4.9 4.9 0 0 0 2 1.1c2.3.3 3.4-4 4.4-5.5s3.1-4.3 6.2-4.9a18.7 18.7 0 0 1 7.8.6c8.8 2.1 18.1 3.1 26.5-1.1z" class="o"/><path d="M147.6 117a12.4 12.4 0 0 0-3.1-4.8l-1.4-1.5a64.4 64.4 0 0 0-38-19 26 26 0 0 0-10.4.3s-13.2 6.8-12.2 21.9c1.3 19 5.1 18.9 15.4 27.7a18.7 18.7 0 0 1 7.8.6c8.8 2.1 18.1 3.1 26.5-1.1a30.1 30.1 0 0 0 14.9-17.4 11.8 11.8 0 0 0 .5-6.7z" class="k p"/><path fill="#34b9eb" d="M149.5 114.8l-.4-.5c-1-.8-2.5-.9-3.7-1.3l-4.7-1.8-8.2-2.4c-6.5-1.7-14.1-3.4-20.3.2a12.3 12.3 0 0 0-6.2 8.4 10.2 10.2 0 0 0 2.8 8.8c2.5 2.4 6.4 3.7 9.7 4.9a71.8 71.8 0 0 0 19.3 5.3 5.4 5.4 0 0 0 2.2 0 3.8 3.8 0 0 0 1.3-.9 29.7 29.7 0 0 0 5.3-4.7 15.4 15.4 0 0 0 3.1-7.7 27.5 27.5 0 0 0 .3-6.4 3.8 3.8 0 0 0-.5-1.9z"/><path d="M347.5 196.5c-4.8-9.6-9.8-19.1-15.1-28.4l-2.6-4.4-1.1-1.8-2-3.3a8.6 8.6 0 0 1-1-1.6l-3.1-4.7c-3.2-4.7-6.8-10-12.1-12.7s-11.2-3-16.7-4a68 68 0 0 0-27.7-.4c-13.4 3.3-23.7 12.7-32.9 22.4s-19.6 21.5-25.4 34.9l-.9 2.3c-1.9 4.9-3 10.2-1.9 15.3 1.8 9.3 10.7 16.1 20.1 17.9l1.7.2H237a68.1 68.1 0 0 0 15.9-4.3 67.3 67.3 0 0 0 34.8-26.9 86.4 86.4 0 0 0-5.8 11.3 44.8 44.8 0 0 0-3.1 11.7 5.1 5.1 0 0 1-.6 2.2c-1 1.6-3.3 1.5-5 2.1a3.8 3.8 0 0 0-1.5.9 217.1 217.1 0 0 0 15.5 93.5 249.7 249.7 0 0 1-51.1 25.2c22.7 3.1 47.5 4.5 67.4-8.5 14.5-9.6 23.7-24.7 30.8-40.1s14.8-32.8 19.8-49.9a68.3 68.3 0 0 0 3.4-19.6c.1-10.6-5.4-20-10-29.3z" class="n"/><path d="M271.8 234.5a12.1 12.1 0 0 0-.1 1.9v1.6l.1 4.2v1.6l.2 4.3.1 1.5.3 4.5a4.9 4.9 0 0 0 .1 1.2l.5 5.5v.2c.4 3.8.9 7.7 1.6 11.5a5.9 5.9 0 0 0 .2 1.3l.7 4.2a16.2 16.2 0 0 1 .4 1.9l.8 3.7.4 2.1.8 3.4.6 2.2.9 3.4.6 2.2 1 3.3a18.7 18.7 0 0 0 .7 2.2l1.1 3.4a17.2 17.2 0 0 0 .7 2.1 52 52 0 0 0 1.3 3.6l.6 1.8 2.1 5.4-5.9 3.7-.5.3-5.7 3.3-.7.4-5.6 3-.8.5-5.6 2.8-.9.5-5.6 2.7-.8.3-5.7 2.6-.8.3-5.8 2.3-.5.2-6.2 2.3c22.7 3.1 47.5 4.5 67.4-8.6a65.9 65.9 0 0 0 15.9-14.8 139.2 139.2 0 0 0-47.9-86zm47.3-65.8c5.8-10.3 4.7-8.6 1.3-19.6-2.7-3.8-5.8-7.4-9.9-9.5s-11.2-3-16.7-4c-3.4-.6-6.7-1.1-10.1-1.4 12.5 11 15.8 21.9 15.9 31.2s-7.9 24.2-11.9 31.6-20 39.9 3.1 10.4c7.2-9.1 15.7-14.5 20.9-23.5s.9-3.5 7.4-15.2z" class="o"/><path d="M293.6 142c-2.4-2.4-6.5-7.1-10-7.9a51.9 51.9 0 0 0-16.2 1.1c-13.3 3.3-23.7 12.7-32.8 22.4s-19.7 21.5-25.4 34.9a16 16 0 0 0-1 2.3c-1.9 4.9-3 10.2-1.9 15.3 1.8 8.9 9.9 15.4 18.7 17.5 13.9.1 35.1-7.3 51-23.6 22.6-23.1 29.8-50.1 17.6-62z" class="k p"/><path fill="#9f87bf" d="M232.5 178.7a16.6 16.6 0 0 0-4.9 3c-4.1 3-7.7 6.6-11.4 9.9s-9.4 6.5-10.8 11.9a14.6 14.6 0 0 0 .6 8.5c1.5 4.8 4.2 9.4 8.4 12.2 7.7 5.1 16.1.7 22.5-4.4s13.1-8.8 16.4-15.7-1.3-13.2-5-17.9-8.9-9.2-14.9-7.8z"/><path fill="#fff" d="M249.3 187.5l-39.5 32.2a19.7 19.7 0 0 0 4.6 4.5c7.7 5.1 16.1.7 22.5-4.4s13.1-8.8 16.4-15.7c2.6-5.4-.6-11.9-4-16.6z" opacity=".1"/><path d="M158.1 165.1h-.1a16.9 16.9 0 0 0-4.7-2.7 68.5 68.5 0 0 0-13.5-3.4c-10-1.6-20.1-.8-30.2-.8s-19.3 0-27.7 5-12.9 14.5-14.6 23.3-.2 17.2 4.7 24a29.7 29.7 0 0 0 34.1 9.3 6.1 6.1 0 0 0 2.2-1.3c.8-.9 1-2.2 1.6-3.3 1.5-2.9 6.5-1.4 9.1-1.5a77.1 77.1 0 0 0 19.7-3.7c16.1-5.8 29.4-21.5 22.9-39.2a15.2 15.2 0 0 0-3.5-5.7z" class="n"/><path d="M115 226.6c2.6-.8-.5-7.5-2.8-11.9a1.4 1.4 0 0 0-1.3-.6c2.1-1.3 6-.3 8.1-.4a77.1 77.1 0 0 0 19.7-3.7 41.7 41.7 0 0 0 18.2-12.8c-14.4-1.6-20.9 12-42.4 9.7-9.4-1-17.5 1.3-25.7 1.5s-14.9-3.8-17.5 1l.7 1.1c4.3 6 11.2 9.7 18.5 10.9h.3a25.6 25.6 0 0 0 4.7.4c5.9.9 11.6 3.2 17.4 4.6a3.8 3.8 0 0 0 2.1.2z" class="o"/><path d="M158.1 165.1h-.1a16.9 16.9 0 0 0-4.7-2.7 68.5 68.5 0 0 0-13.5-3.4c-10-1.6-20.1-.8-30.2-.8s-24 4.9-25.4 21.5c-2.5 30.8 44.5 31.4 56.8 28.9a27.7 27.7 0 0 0 20.6-37.7 15.2 15.2 0 0 0-3.5-5.8z" class="k p"/><path fill="#5d509e" d="M119 180.8a12.7 12.7 0 0 1 3.1-8.4c3-3.4 6.8-4.1 11.1-4.8l6.5-.9c5.9-.7 11.9-1.5 18-1.7a7.2 7.2 0 0 1 2.5.3 5.3 5.3 0 0 1 2.8 3.4 24.3 24.3 0 0 1 1.3 8.9 58.9 58.9 0 0 1-1.1 11.8 8.5 8.5 0 0 1-.6 1.7c-1.1 1.9-3.8 2.1-5.7 2.4a115.4 115.4 0 0 1-23.5.5 21.5 21.5 0 0 1-6.7-1.3 12.4 12.4 0 0 1-7.7-11.9z"/><g fill="#ddc1a8"><path d="M89 149c-1.6 0-1.6-.3-4.2-.7s-1.7-.2-2.8-.1h-.2l3.5 2.7 1.1.8 1.2.3a2.5 2.5 0 0 0 1.5-.8l1-1.4.3-.7zM90.2 221.4h-.1c7.9-.3 15.3 3.2 22.8 5a3.8 3.8 0 0 0 2.1.2c2.6-.8-.5-7.5-2.8-11.9a1.3 1.3 0 0 0-2.2-.1c-3.2 4.4-17.7 6.6-19.8 6.8zM272.5 255.8l-.1-.8a1.9 1.9 0 0 0 .1.8zm-.7-12.8l-.1-5.7.1 5.7zm1.6-18.9c1.8-.6 4.1-.5 5.1-2a6 6 0 0 0 .6-2.2 44.5 44.5 0 0 1 3.1-11.8 85.5 85.5 0 0 1 5.7-11.3 52.7 52.7 0 0 1-15.1 16.4l-.9 11.8zm-1.4 25.1l.4 5.5-.4-5.5zm-.2-6.2l.2 5.8-.2-5.8zm.1-17.8c-.2 3.9-.2 7.8-.2 11.7 0-3.9 0-7.8.2-11.7z"/></g><path d="M66 250.9c.9-3.7 5.1-8.9 7.6-11.6 6.7-7.3 16.5-10.6 25.6-14.1a216.5 216.5 0 0 1 31.6-9.4 114.2 114.2 0 0 1 16.4-2.6c4.2-.3 10.9-1.6 14.2 1.7a18.3 18.3 0 0 1 3.6 6.4 106.8 106.8 0 0 1 4.3 12.4 24 24 0 0 1 .9 10.3c-1.1 5.8-5.7 10.4-10.7 13.4-9.5 5.7-20.4 8.7-30.4 13.3-4 1.8-7.9 3.9-10.9 7-1.5 1.5-2.6 3.2-4.2 4.5a21.7 21.7 0 0 1-11.6 4.1c-8 1.2-16.6 1.7-23.8-2.1-11.8-6.2-15.3-21.1-12.6-33.3z" class="n"/><path d="M111.7 282.9c3.2-1.4 5.9-5.2 8-7.8a1.6 1.6 0 0 1 .8-.6.8.8 0 0 1 .8.3c2.4 1.5-3.6 6.3-3.1 9.2a6.3 6.3 0 0 1-.2 2.7c-.4.9-1.9.5-2.8.6-7 1.1-4-2.5-10.8-1.3 2.9-1.4 4.7-1.9 7.3-3.1zm46.9-31.9c-3.1.4-41.4 15.3-46.8 17.1s-14.2 5.4-23.1 5.4-11 .6-13.4 3.6l-2.5 2.8a20.9 20.9 0 0 0 5.8 4.3c7.2 3.8 15.8 3.3 23.8 2.1 4.1-.5 8.4-1.4 11.6-4.1 1.6-1.3 2.7-3 4.2-4.5 3-3.1 6.9-5.2 10.9-7 10-4.6 20.9-7.6 30.4-13.3a24.9 24.9 0 0 0 7.8-7z" class="o"/><path d="M169.3 233.7a106.8 106.8 0 0 0-4.3-12.4 18.3 18.3 0 0 0-3.6-6.4c-3.3-3.3-10-2-14.2-1.7a114.2 114.2 0 0 0-16.4 2.6 208.6 208.6 0 0 0-24.6 6.9c-15.7 10-20.6 21.9-17 32.2C93.7 268 114 271 136 265.8c8-3.2 16-3.9 23.5-8.4 5-3 9.6-7.6 10.7-13.4a24 24 0 0 0-.9-10.3z" class="k p"/><path fill="#41439a" d="M132.9 227.8c2.9-3.7 8.6-5.6 12.9-6.8s10.2-2 15.3-3.1c1.8-.4 5.3-1.4 7.2-1.1s3.5 2.9 5.1 5.2 3.1 7.6 3.5 11.6a7.4 7.4 0 0 1-.6 4.1 8.4 8.4 0 0 1-3.2 2.7 58.2 58.2 0 0 1-8.1 3.5 118.4 118.4 0 0 1-13.3 3.6c-5.2 1.2-11.5 2.9-16.1-.8a12.5 12.5 0 0 1-4.1-7c-.8-3.4-1-8.1.9-11.2z"/><path fill="#fff" d="M176 228.1l-44.3 12.5a12 12 0 0 0 3.9 6.1c4.6 3.7 10.9 2 16.1.8a118.4 118.4 0 0 0 13.3-3.6 58.2 58.2 0 0 0 8.1-3.5 8.4 8.4 0 0 0 3.2-2.7 7.4 7.4 0 0 0 .6-4.1 52.5 52.5 0 0 0-.9-5.5z" class="i" opacity=".4"/><path d="M164.6 284.7a20.2 20.2 0 0 0-6.4-2.2 85.6 85.6 0 0 0-39.6 2.4c-11.1 3.3-30.9 10.3-32.1 23.8a22.7 22.7 0 0 0 4.1 14.7c3.8 5.9 10.3 11.9 17.7 12.2 5.8.2 11.1-2 16.4-3.8s10.4-2.3 15.4-4.2a50.2 50.2 0 0 0 26-20.4 22.9 22.9 0 0 0 3.8-11.8c.1-4.1-1.8-8.5-5.3-10.7z" class="n"/><path d="M144.4 319.9c-9 3-16.7 3.9-24.8 6.2s-16.5-6.4-21.4 5.6a18.4 18.4 0 0 0 10.1 3.9c5.8.2 11.1-2 16.4-3.8s10.4-2.3 15.4-4.2c9-3.3 17.3-8.7 23.1-16.3-7.3 3.5-14.3 7.1-18.8 8.6z" class="o"/><path d="M164.6 284.7a20.2 20.2 0 0 0-6.4-2.2 86.7 86.7 0 0 0-38.9 2.1c-8.6 7.6-12.9 16.4-10.6 24.2 3.4 11.6 16 23 41.2 14.1a46.8 46.8 0 0 0 16.2-15.7 22.9 22.9 0 0 0 3.8-11.8c.1-4.1-1.8-8.5-5.3-10.7z" class="k p"/><path fill="#005c9f" d="M132.6 303.9c1.8 4.7 6.9 7.4 11.6 8.1a31.6 31.6 0 0 0 9.7-.3c3.9-.7 7.8-1.6 11.6-2.6a13.4 13.4 0 0 0 6.7-3.4 9.2 9.2 0 0 0 1.5-2.5c1.3-3 .8-6.3 0-9.3s-2.2-6.9-5.7-7.8a12.8 12.8 0 0 0-5.5 0c-5.3.8-10.4 2.7-15.7 3.7-3.2.7-6.5 1.3-9.3 3s-5.3 4.5-5.5 7.7a9.7 9.7 0 0 0 .6 3.4z"/><g fill="#fff" class="i k"><path d="M106.3 116.2l-.3 1.2a10.2 10.2 0 0 0 2.8 8.8c2.5 2.4 6.4 3.7 9.7 4.9a71.8 71.8 0 0 0 19.3 5.3 5.4 5.4 0 0 0 2.2 0 3.8 3.8 0 0 0 1.3-.9 29.7 29.7 0 0 0 5.3-4.7 14.4 14.4 0 0 0 1.9-3.1zM119.1 182.4a12.4 12.4 0 0 0 7.6 10.3 21.5 21.5 0 0 0 6.7 1.3 115.4 115.4 0 0 0 23.5-.5c1.9-.3 4.6-.5 5.7-2.4a8.5 8.5 0 0 0 .6-1.7 61 61 0 0 0 1.1-11.3zM132.9 304.7c2.1 4.2 6.8 6.7 11.3 7.3a31.6 31.6 0 0 0 9.7-.3c3.9-.7 7.8-1.6 11.6-2.6a13.4 13.4 0 0 0 6.7-3.4 9.2 9.2 0 0 0 1.5-2.5 12.8 12.8 0 0 0 .3-8z"/></g></svg>