
<svg xmlns="http://www.w3.org/2000/svg" fill="#fff" width="600" height="600" viewBox="0 0 4140 4140"><style>.i{mix-blend-mode:overlay}.k{opacity:.3}.n{fill:#f7ddc4}.o{fill:#eaceb1}.p{fill:#f8e9db}</style><circle cx="2070" cy="2070" r="2035" fill="#40403f" stroke="#4a494a" stroke-width="70"/><path fill="#e17926" d="M699 1220l-60-78 118-73a418 418 0 00-58 151zm521 913l-28 2c-19 2-51-6-73 1l14 71 96-29a358 358 0 00-9-45zm-35 651l-18 22-4 54 18-5a645 645 0 0184-21l6-112a295 295 0 00-86 62zM3154 813a2686 2686 0 00-943-177c-406 0-795 100-1168 279a662 662 0 01158 38c78-34 155-63 233-89a2471 2471 0 01777-128 2568 2568 0 01805 134 4005 4005 0 00-363 1159 2558 2558 0 00-12 604 2287 2287 0 00114 504c-340 198-667 294-997 294a1742 1742 0 01-555-93 334 334 0 01-121 24l-9 35a1857 1857 0 00685 134c389 0 762-129 1120-351-289-730-140-1515 276-2367zM979 1584c-19-39-39-77-60-115-7 12-15 40-29 51l37 71a434 434 0 0152-7z"/><path fill="#f78f20" d="M2702 2035c50-367 175-759 383-1194a2634 2634 0 00-874-155c-359 0-722 82-1082 245a642 642 0 01296 166l14 15a126 126 0 0133 47 127 127 0 01-4 67 303 303 0 01-146 179c-82 44-175 35-264 16-25-5-52-10-78-4s-46 26-61 51c21 38 41 76 60 115a1144 1144 0 01118-4c101-1 202-8 302 8a569 569 0 01135 34 147 147 0 0147 27h1a160 160 0 0135 57c65 178-68 335-228 392a700 700 0 01-197 37 85 85 0 01-22-1l11 58c37-11 74-22 112-31a1267 1267 0 01163-31c42-4 108-19 142 13 18 16 28 40 38 63a1281 1281 0 0147 122 242 242 0 0112 103c-9 58-53 106-103 138-93 60-201 93-299 141a596 596 0 00-74 43l-5 92a872 872 0 01363-15 180 180 0 0164 22c36 22 54 65 54 107s-17 82-38 118a501 501 0 01-259 205c-51 18-104 25-154 42a1002 1002 0 01-110 34 31 31 0 01-2 8 1824 1824 0 00626 115c351 0 697-105 1058-322a2274 2274 0 01-114-1123z"/><path fill="#fdcda0" d="M2068 1683c74-12 148-111 170-229s-51-216-164-206-180 124-163 243 83 203 157 192z"/><path fill="#e17827" d="M2460 2332c-209-134-304-362-467-591-155 280-217 569-412 791 323 16 610-77 879-200z"/><path fill="#c86228" d="M2206 2727c-267-245-369-616-765-833 60 341 69 639-148 889 338 81 637 39 913-56z"/><path fill="none" stroke="#e17827" stroke-miterlimit="10" stroke-width="40" d="M2533 2440c-404 178-828 290-1296 212 76-443 11-868-291-1255 515-239 1096-386 1772-273-213 469-308 906-185 1316z"/><path fill="#c96328" d="M1510 1167a41 41 0 00-5-19l-4-5c-10-8-25-9-37-13l-17-7-6-6a646 646 0 00-381-190 274 274 0 00-103 3c-149 38-268 235-248 383 13 95 82 152 154 207a47 47 0 0020 10c23 3 34-40 44-54s30-44 61-50a193 193 0 0179 6c88 21 181 31 264-11a266 266 0 0068-47 42 42 0 0014-9 362 362 0 0042-36l21-21a154 154 0 0031-77 275 275 0 003-64zm562 791a160 160 0 0110-23c57-134 155-244 254-349s195-191 328-224a680 680 0 01277 4c55 10 117 14 168 40s89 80 120 127a4170 4170 0 01249 442c47 93 101 187 101 293a720 720 0 01-34 196c-51 171-125 338-199 499s-163 305-308 400c-212 140-481 114-719 80-40-6-378-39-381-71-2-16 107-52 122-59a910 910 0 00364-282 398 398 0 0068-158c15-84 41-166 88-237s111-121 111-212c0-32-7-63-4-95s18-65 48-76 40-5 50-21a40 40 0 006-22 584 584 0 0189-230 670 670 0 01-348 269c-88 35-185 58-278 40s-182-85-201-178a270 270 0 0119-153zm-420-150a162 162 0 001-22 243 243 0 00-13-89 53 53 0 00-28-34 28 28 0 00-13-3 151 151 0 00-46-27 685 685 0 00-135-34c-100-16-201-8-302-8s-193 0-277 50-129 146-146 234-2 172 47 240a296 296 0 00341 93 61 61 0 0022-13c8-9 10-22 16-33 15-29 65-14 91-15a771 771 0 00197-37c89-32 170-95 213-175a31 31 0 0016-14 85 85 0 006-17 452 452 0 008-63 183 183 0 002-33zm126 538a249 249 0 00-35-116c-15-23-23-48-51-52a199 199 0 00-50 7 97 97 0 00-19-26c-32-32-99-20-141-17a1301 1301 0 00-164 26 2177 2177 0 00-317 94c-90 35-188 68-255 141-25 28-68 80-76 117-27 121 7 271 126 333 71 37 157 32 237 21 42-6 85-14 117-41 15-14 27-31 41-45 30-32 70-53 110-71 100-45 209-75 303-132 51-31 96-77 107-135a85 85 0 003-23l27-13a84 84 0 0032-27 64 64 0 005-41zm-31 603c-8-32-22-69-57-78a64 64 0 00-20-3l-14-11a202 202 0 00-64-22 856 856 0 00-396 24c-111 33-309 103-321 238a227 227 0 0041 147c38 59 103 119 177 122 58 2 111-20 164-38s104-23 154-42a510 510 0 00246-183l8-2a138 138 0 0067-34 92 92 0 0015-25c13-30 8-63 0-93z" opacity=".5"/><path d="M1431 1107a644 644 0 00-380-190 260 260 0 00-104 3c-148 37-268 235-248 383 14 95 82 152 154 206a49 49 0 0020 11c23 3 34-40 44-55s31-43 62-49a187 187 0 0178 6c88 21 181 31 265-11a301 301 0 00149-174 118 118 0 005-67 124 124 0 00-31-48z" class="n"/><path d="M1322 1411l28-16c-86-13-122-1-140-7s-94-2-120-9-61-5-83-10a514 514 0 00-98-14c-51-5-94-25-123-3s-40 26-56 36c30 48 76 85 123 121a49 49 0 0020 11c23 3 34-40 44-55s31-43 62-49a187 187 0 0178 6c88 21 181 31 265-11z" class="o"/><path d="M1476 1170a124 124 0 00-31-48l-14-15a644 644 0 00-380-190 260 260 0 00-104 3s-132 68-122 219c13 190 51 189 154 277a187 187 0 0178 6c88 21 181 31 265-11a301 301 0 00149-174 118 118 0 005-67z" class="k p"/><path fill="#34b9eb" d="M1495 1148l-4-5c-10-8-25-9-37-13l-47-18-82-24c-65-17-141-34-203 2a123 123 0 00-62 84 102 102 0 0028 88c25 24 64 37 97 49a718 718 0 00193 53 54 54 0 0022 0 38 38 0 0013-9 297 297 0 0053-47 154 154 0 0031-77 275 275 0 003-64 38 38 0 00-5-19z"/><path d="M3475 1965c-48-96-98-191-151-284l-26-44-11-18-20-33a86 86 0 01-10-16l-31-47c-32-47-68-100-121-127s-112-30-167-40a680 680 0 00-277-4c-134 33-237 127-329 224s-196 215-254 349l-9 23c-19 49-30 102-19 153 18 93 107 161 201 179l17 2h102a681 681 0 00159-43 673 673 0 00348-269 864 864 0 00-58 113 448 448 0 00-31 117 51 51 0 01-6 22c-10 16-33 15-50 21a38 38 0 00-15 9 2171 2171 0 00155 935 2497 2497 0 01-511 252c227 31 475 45 674-85 145-96 237-247 308-401s148-328 198-499a683 683 0 0034-196c1-106-54-200-100-293z" class="n"/><path d="M2718 2345a121 121 0 00-1 19v16l1 42v16l2 43 1 15 3 45a49 49 0 001 12l5 55v2c4 38 9 77 16 115a59 59 0 002 13l7 42a162 162 0 014 19l8 37 4 21 8 34 6 22 9 34 6 22 10 33a187 187 0 007 22l11 34a172 172 0 007 21 520 520 0 0013 36l6 18 21 54-59 37-5 3-57 33-7 4-56 30-8 5-56 28-9 5-56 27-8 3-57 26-8 3-58 23-5 2-62 23c227 31 475 45 674-86a659 659 0 00159-148 1392 1392 0 00-479-860zm473-658c58-103 47-86 13-196-27-38-58-74-99-95s-112-30-167-40c-34-6-67-11-101-14 125 110 158 219 159 312s-79 242-119 316-200 399 31 104c72-91 157-145 209-235s9-35 74-152z" class="o"/><path d="M2936 1420c-24-24-65-71-100-79a519 519 0 00-162 11c-133 33-237 127-328 224s-197 215-254 349a160 160 0 00-10 23c-19 49-30 102-19 153 18 89 99 154 187 175 139 1 351-73 510-236 226-231 298-501 176-620z" class="k p"/><path fill="#9f87bf" d="M2325 1787a166 166 0 00-49 30c-41 30-77 66-114 99s-94 65-108 119a146 146 0 006 85c15 48 42 94 84 122 77 51 161 7 225-44s131-88 164-157-13-132-50-179-89-92-149-78z"/><path d="M2493 1875l-395 322a197 197 0 0046 45c77 51 161 7 225-44s131-88 164-157c26-54-6-119-40-166z" opacity=".1"/><path d="M1581 1651h-1a169 169 0 00-47-27 685 685 0 00-135-34c-100-16-201-8-302-8s-193 0-277 50-129 145-146 233-2 172 47 240a297 297 0 00341 93 61 61 0 0022-13c8-9 10-22 16-33 15-29 65-14 91-15a771 771 0 00197-37c161-58 294-215 229-392a152 152 0 00-35-57z" class="n"/><path d="M1150 2266c26-8-5-75-28-119a14 14 0 00-13-6c21-13 60-3 81-4a771 771 0 00197-37 417 417 0 00182-128c-144-16-209 120-424 97-94-10-175 13-257 15s-149-38-175 10l7 11c43 60 112 97 185 109h3a256 256 0 0047 4c59 9 116 32 174 46a38 38 0 0021 2z" class="o"/><path d="M1581 1651h-1a169 169 0 00-47-27 685 685 0 00-135-34c-100-16-201-8-302-8s-240 49-254 215c-25 308 445 314 568 289a277 277 0 00206-377 152 152 0 00-35-58z" class="k p"/><path fill="#5d509e" d="M1190 1808a127 127 0 0131-84c30-34 68-41 111-48l65-9c59-7 119-15 180-17a72 72 0 0125 3 53 53 0 0128 34 243 243 0 0113 89 589 589 0 01-11 118 85 85 0 01-6 17c-11 19-38 21-57 24a1154 1154 0 01-235 5 215 215 0 01-67-13 124 124 0 01-77-119z"/><path fill="#ddc1a8" d="M890 1490c-16 0-16-3-42-7s-17-2-28-1h-2l35 27 11 8 12 3a25 25 0 0015-8l10-14 3-7zm12 724h-1c79-3 153 32 228 50a38 38 0 0021 2c26-8-5-75-28-119a13 13 0 00-22-1c-32 44-177 66-198 68zm1823 344l-1-8a19 19 0 001 8zm-7-128l-1-57 1 57zm16-189c18-6 41-5 51-20a60 60 0 006-22 445 445 0 0131-118 855 855 0 0157-113 527 527 0 01-151 164l-9 118zm-14 251l4 55-4-55zm-2-62l2 58-2-58zm1-178c-2 39-2 78-2 117 0-39 0-78 2-117z"/><path d="M660 2509c9-37 51-89 76-116 67-73 165-106 256-141a2165 2165 0 01316-94 1142 1142 0 01164-26c42-3 109-16 142 17a183 183 0 0136 64 1068 1068 0 0143 124 240 240 0 019 103c-11 58-57 104-107 134-95 57-204 87-304 133-40 18-79 39-109 70-15 15-26 32-42 45a217 217 0 01-116 41c-80 12-166 17-238-21-118-62-153-211-126-333z" class="n"/><path d="M1117 2829c32-14 59-52 80-78a16 16 0 018-6 8 8 0 018 3c24 15-36 63-31 92a63 63 0 01-2 27c-4 9-19 5-28 6-70 11-40-25-108-13 29-14 47-19 73-31zm469-319c-31 4-414 153-468 171s-142 54-231 54-110 6-134 36l-25 28a209 209 0 0058 43c72 38 158 33 238 21 41-5 84-14 116-41 16-13 27-30 42-45 30-31 69-52 109-70 100-46 209-76 304-133a249 249 0 0078-70z" class="o"/><path d="M1693 2337a1068 1068 0 00-43-124 183 183 0 00-36-64c-33-33-100-20-142-17a1142 1142 0 00-164 26 2086 2086 0 00-246 69c-157 100-206 219-170 322 45 131 248 161 468 109 80-32 160-39 235-84 50-30 96-76 107-134a240 240 0 00-9-103z" class="k p"/><path fill="#41439a" d="M1329 2278c29-37 86-56 129-68s102-20 153-31c18-4 53-14 72-11s35 29 51 52 31 76 35 116a74 74 0 01-6 41 84 84 0 01-32 27 582 582 0 01-81 35 1184 1184 0 01-133 36c-52 12-115 29-161-8a125 125 0 01-41-70c-8-34-10-81 9-112z"/><path d="M1760 2281l-443 125a120 120 0 0039 61c46 37 109 20 161 8a1184 1184 0 00133-36 582 582 0 0081-35 84 84 0 0032-27 74 74 0 006-41 525 525 0 00-9-55z" class="i" opacity=".4"/><path d="M1646 2847a202 202 0 00-64-22 856 856 0 00-396 24c-111 33-309 103-321 238a227 227 0 0041 147c38 59 103 119 177 122 58 2 111-20 164-38s104-23 154-42a502 502 0 00260-204 229 229 0 0038-118c1-41-18-85-53-107z" class="n"/><path d="M1444 3199c-90 30-167 39-248 62s-165-64-214 56a184 184 0 00101 39c58 2 111-20 164-38s104-23 154-42c90-33 173-87 231-163-73 35-143 71-188 86z" class="o"/><path d="M1646 2847a202 202 0 00-64-22 867 867 0 00-389 21c-86 76-129 164-106 242 34 116 160 230 412 141a468 468 0 00162-157 229 229 0 0038-118c1-41-18-85-53-107z" class="k p"/><path fill="#005c9f" d="M1326 3039c18 47 69 74 116 81a316 316 0 0097-3c39-7 78-16 116-26a134 134 0 0067-34 92 92 0 0015-25c13-30 8-63 0-93s-22-69-57-78a128 128 0 00-55 0c-53 8-104 27-157 37-32 7-65 13-93 30s-53 45-55 77a97 97 0 006 34z"/><path d="M1063 1162l-3 12a102 102 0 0028 88c25 24 64 37 97 49a718 718 0 00193 53 54 54 0 0022 0 38 38 0 0013-9 297 297 0 0053-47 144 144 0 0019-31zm128 662a124 124 0 0076 103 215 215 0 0067 13 1154 1154 0 00235-5c19-3 46-5 57-24a85 85 0 006-17 610 610 0 0011-113zm138 1223c21 42 68 67 113 73a316 316 0 0097-3c39-7 78-16 116-26a134 134 0 0067-34 92 92 0 0015-25 128 128 0 003-80z" class="i k"/></svg>
