<svg xmlns="http://www.w3.org/2000/svg" viewBox="0 0 29.34 28.61"><path fill="#838383" d="M14.67 0a14.67 14.67 0 00-4.64 28.59c.74.13 1-.32 1-.7l-.02-2.74c-4.08.89-4.94-1.73-4.94-1.73a3.88 3.88 0 00-1.63-2.14c-1.33-.91.1-.9.1-.9A3.08 3.08 0 016.8 21.9a3.12 3.12 0 004.27 1.22 3.12 3.12 0 01.93-1.96c-3.26-.37-6.68-1.63-6.68-7.25a5.68 5.68 0 011.5-3.94 5.27 5.27 0 01.15-3.9S8.2 5.7 11 7.58a13.9 13.9 0 017.34 0c2.8-1.9 4.03-1.5 4.03-1.5a5.27 5.27 0 01.15 3.9 5.67 5.67 0 011.5 3.93c0 5.63-3.42 6.87-6.7 7.24a3.5 3.5 0 011 2.71l-.01 4.03c0 .39.26.85 1 .7A14.67 14.67 0 0014.67 0z"/></svg>
