<svg width="536" height="536" viewBox="0 0 536 536" fill="none" xmlns="http://www.w3.org/2000/svg">
<path d="M432.15 224.227C416.963 147.177 349.293 89.3335 268 89.3335C234.947 89.3335 204.35 98.9368 178.443 115.464L211.05 148.07C228.023 139.137 247.453 134 268 134C335.893 134 390.833 188.94 390.833 256.834V268H424.333C461.407 268 491.333 297.927 491.333 335C491.333 360.237 477.04 382.124 456.493 393.514L488.877 425.897C517.24 405.574 536 372.52 536 335C536 276.04 490.217 228.247 432.15 224.227ZM67 117.697L128.417 178.89C57.1733 182.017 0 240.53 0 312.667C0 386.59 60.0767 446.667 134 446.667H395.97L440.637 491.334L469 462.97L95.3633 89.3335L67 117.697ZM172.637 223.334L351.303 402H134C84.6433 402 44.6667 362.024 44.6667 312.667C44.6667 263.31 84.6433 223.334 134 223.334H172.637Z" fill="#FF3385"/>
</svg>
