<svg xmlns="http://www.w3.org/2000/svg" fill="none" viewBox="0 0 538 384"><rect width="122" height="119" fill="#FF3385" rx="20"/><path fill="#F7F7F7" fill-opacity=".2" d="M96 85V32c0-5-3-8-8-8H35c-5 0-8 3-8 8v53c0 5 3 8 8 8h53c5 0 8-3 8-8zM48 64l10 12 13-17 17 23H35l13-18z"/><rect width="122" height="119" fill="#FF3385" rx="20"/><path fill="#F7F7F7" fill-opacity=".2" d="M96 85V32c0-5-3-8-8-8H35c-5 0-8 3-8 8v53c0 5 3 8 8 8h53c5 0 8-3 8-8zM48 64l10 12 13-17 17 23H35l13-18z"/><rect width="122" height="119" x="138" fill="#FF3385" rx="20"/><path fill="#F7F7F7" fill-opacity=".2" d="M234 85V32c0-5-3-8-8-8h-53c-5 0-8 3-8 8v53c0 5 3 8 8 8h53c5 0 8-3 8-8zm-48-21l10 12 13-17 17 23h-53l13-18z"/><rect width="122" height="119" x="138" fill="#FF3385" rx="20"/><path fill="#F7F7F7" fill-opacity=".2" d="M234 85V32c0-5-3-8-8-8h-53c-5 0-8 3-8 8v53c0 5 3 8 8 8h53c5 0 8-3 8-8zm-48-21l10 12 13-17 17 23h-53l13-18z"/><rect width="122" height="119" x="276" fill="#FF3385" rx="20"/><path fill="#F7F7F7" fill-opacity=".2" d="M371 85V32c0-5-3-8-8-8h-53c-5 0-8 3-8 8v53c0 5 3 8 8 8h53c5 0 8-3 8-8zm-48-21l10 12 13-17 17 23h-53l13-18z"/><rect width="122" height="119" x="276" fill="#FF3385" rx="20"/><path fill="#F7F7F7" fill-opacity=".2" d="M371 85V32c0-5-3-8-8-8h-53c-5 0-8 3-8 8v53c0 5 3 8 8 8h53c5 0 8-3 8-8zm-48-21l10 12 13-17 17 23h-53l13-18z"/><rect width="122" height="118" y="133" fill="#FF3385" rx="20"/><path fill="#F7F7F7" fill-opacity=".2" d="M96 218v-53c0-5-3-8-8-8H35c-5 0-8 3-8 8v53c0 5 3 8 8 8h53c5 0 8-3 8-8zm-48-21l10 12 13-17 17 23H35l13-18z"/><rect width="122" height="118" y="133" fill="#FF3385" rx="20"/><path fill="#F7F7F7" fill-opacity=".2" d="M96 218v-53c0-5-3-8-8-8H35c-5 0-8 3-8 8v53c0 5 3 8 8 8h53c5 0 8-3 8-8zm-48-21l10 12 13-17 17 23H35l13-18z"/><rect width="122" height="118" x="138" y="133" fill="#FF3385" rx="20"/><path fill="#F7F7F7" fill-opacity=".2" d="M234 218v-53c0-5-3-8-8-8h-53c-5 0-8 3-8 8v53c0 5 3 8 8 8h53c5 0 8-3 8-8zm-48-21l10 12 13-17 17 23h-53l13-18z"/><rect width="122" height="118" x="138" y="133" fill="#FF3385" rx="20"/><path fill="#F7F7F7" fill-opacity=".2" d="M234 218v-53c0-5-3-8-8-8h-53c-5 0-8 3-8 8v53c0 5 3 8 8 8h53c5 0 8-3 8-8zm-48-21l10 12 13-17 17 23h-53l13-18z"/><rect width="122" height="118" x="276" y="133" fill="#FF3385" rx="20"/><path fill="#F7F7F7" fill-opacity=".2" d="M371 218v-53c0-5-3-8-8-8h-53c-5 0-8 3-8 8v53c0 5 3 8 8 8h53c5 0 8-3 8-8zm-48-21l10 12 13-17 17 23h-53l13-18z"/><rect width="122" height="118" x="276" y="133" fill="#FF3385" rx="20"/><path fill="#F7F7F7" fill-opacity=".2" d="M371 218v-53c0-5-3-8-8-8h-53c-5 0-8 3-8 8v53c0 5 3 8 8 8h53c5 0 8-3 8-8zm-48-21l10 12 13-17 17 23h-53l13-18z"/><rect width="122" height="119" y="265" fill="#FF3385" rx="20"/><path fill="#F7F7F7" fill-opacity=".2" d="M96 351v-53c0-5-3-8-8-8H35c-5 0-8 3-8 8v53c0 5 3 8 8 8h53c5 0 8-3 8-8zm-48-21l10 12 13-17 17 23H35l13-18z"/><rect width="122" height="119" y="265" fill="#FF3385" rx="20"/><path fill="#F7F7F7" fill-opacity=".2" d="M96 351v-53c0-5-3-8-8-8H35c-5 0-8 3-8 8v53c0 5 3 8 8 8h53c5 0 8-3 8-8zm-48-21l10 12 13-17 17 23H35l13-18z"/><rect width="122" height="119" x="138" y="265" fill="#FF3385" rx="20"/><path fill="#F7F7F7" fill-opacity=".2" d="M234 351v-53c0-5-3-8-8-8h-53c-5 0-8 3-8 8v53c0 5 3 8 8 8h53c5 0 8-3 8-8zm-48-21l10 12 13-17 17 23h-53l13-18z"/><rect width="122" height="119" x="138" y="265" fill="#FF3385" rx="20"/><path fill="#F7F7F7" fill-opacity=".2" d="M234 351v-53c0-5-3-8-8-8h-53c-5 0-8 3-8 8v53c0 5 3 8 8 8h53c5 0 8-3 8-8zm-48-21l10 12 13-17 17 23h-53l13-18z"/><rect width="122" height="119" x="276" y="265" fill="#FF3385" rx="20"/><path fill="#F7F7F7" fill-opacity=".2" d="M371 351v-53c0-5-3-8-8-8h-53c-5 0-8 3-8 8v53c0 5 3 8 8 8h53c5 0 8-3 8-8zm-48-21l10 12 13-17 17 23h-53l13-18z"/><rect width="122" height="119" x="276" y="265" fill="#FF3385" rx="20"/><path fill="#F7F7F7" fill-opacity=".2" d="M371 351v-53c0-5-3-8-8-8h-53c-5 0-8 3-8 8v53c0 5 3 8 8 8h53c5 0 8-3 8-8zm-48-21l10 12 13-17 17 23h-53l13-18z"/><rect width="122" height="119" x="416" fill="#FF3385" rx="20"/><path fill="#F7F7F7" fill-opacity=".2" d="M512 85V32c0-5-3-8-8-8h-53c-5 0-8 3-8 8v53c0 5 3 8 8 8h53c5 0 8-3 8-8zm-48-21l10 12 13-17 17 23h-53l13-18z"/><rect width="122" height="119" x="416" fill="#FF3385" rx="20"/><path fill="#F7F7F7" fill-opacity=".2" d="M512 85V32c0-5-3-8-8-8h-53c-5 0-8 3-8 8v53c0 5 3 8 8 8h53c5 0 8-3 8-8zm-48-21l10 12 13-17 17 23h-53l13-18z"/><rect width="122" height="118" x="416" y="133" fill="#FF3385" rx="20"/><path fill="#F7F7F7" fill-opacity=".2" d="M512 218v-53c0-5-3-8-8-8h-53c-5 0-8 3-8 8v53c0 5 3 8 8 8h53c5 0 8-3 8-8zm-48-21l10 12 13-17 17 23h-53l13-18z"/><rect width="122" height="118" x="416" y="133" fill="#FF3385" rx="20"/><path fill="#F7F7F7" fill-opacity=".2" d="M512 218v-53c0-5-3-8-8-8h-53c-5 0-8 3-8 8v53c0 5 3 8 8 8h53c5 0 8-3 8-8zm-48-21l10 12 13-17 17 23h-53l13-18z"/><rect width="122" height="119" x="416" y="265" fill="#FF3385" rx="20"/><path fill="#F7F7F7" fill-opacity=".2" d="M512 351v-53c0-5-3-8-8-8h-53c-5 0-8 3-8 8v53c0 5 3 8 8 8h53c5 0 8-3 8-8zm-48-21l10 12 13-17 17 23h-53l13-18z"/><rect width="122" height="119" x="416" y="265" fill="#FF3385" rx="20"/><path fill="#F7F7F7" fill-opacity=".2" d="M512 351v-53c0-5-3-8-8-8h-53c-5 0-8 3-8 8v53c0 5 3 8 8 8h53c5 0 8-3 8-8zm-48-21l10 12 13-17 17 23h-53l13-18z"/><path fill="#FFF" d="M477 0h61v384h-61z"/></svg>