<svg width="538" height="384" fill="none" xmlns="http://www.w3.org/2000/svg"><rect width="122" height="119" rx="20" fill="#FF3385"/><path d="M96 85.333V31.667C96 27.45 92.55 24 88.333 24H34.667C30.45 24 27 27.45 27 31.667v53.666C27 89.55 30.45 93 34.667 93h53.666C92.55 93 96 89.55 96 85.333zM48.083 64.25l9.584 11.538L71.083 58.5l17.25 23H34.667l13.416-17.25z" fill="#F7F7F7" fill-opacity=".2"/><rect width="122" height="119" rx="20" fill="#FF3385"/><path d="M96 85.333V31.667C96 27.45 92.55 24 88.333 24H34.667C30.45 24 27 27.45 27 31.667v53.666C27 89.55 30.45 93 34.667 93h53.666C92.55 93 96 89.55 96 85.333zM48.083 64.25l9.584 11.538L71.083 58.5l17.25 23H34.667l13.416-17.25z" fill="#F7F7F7" fill-opacity=".2"/><rect x="138" width="122" height="119" rx="20" fill="#FF3385"/><path d="M234 85.333V31.667c0-4.217-3.45-7.667-7.667-7.667h-53.666C168.45 24 165 27.45 165 31.667v53.666c0 4.217 3.45 7.667 7.667 7.667h53.666c4.217 0 7.667-3.45 7.667-7.667zM186.083 64.25l9.584 11.538L209.083 58.5l17.25 23h-53.666l13.416-17.25z" fill="#F7F7F7" fill-opacity=".2"/><rect x="138" width="122" height="119" rx="20" fill="#FF3385"/><path d="M234 85.333V31.667c0-4.217-3.45-7.667-7.667-7.667h-53.666C168.45 24 165 27.45 165 31.667v53.666c0 4.217 3.45 7.667 7.667 7.667h53.666c4.217 0 7.667-3.45 7.667-7.667zM186.083 64.25l9.584 11.538L209.083 58.5l17.25 23h-53.666l13.416-17.25z" fill="#F7F7F7" fill-opacity=".2"/><rect x="276" width="122" height="119" rx="20" fill="#FF3385"/><path d="M371 85.333V31.667c0-4.217-3.45-7.667-7.667-7.667h-53.666C305.45 24 302 27.45 302 31.667v53.666c0 4.217 3.45 7.667 7.667 7.667h53.666c4.217 0 7.667-3.45 7.667-7.667zM323.083 64.25l9.584 11.538L346.083 58.5l17.25 23h-53.666l13.416-17.25z" fill="#F7F7F7" fill-opacity=".2"/><rect x="276" width="122" height="119" rx="20" fill="#FF3385"/><path d="M371 85.333V31.667c0-4.217-3.45-7.667-7.667-7.667h-53.666C305.45 24 302 27.45 302 31.667v53.666c0 4.217 3.45 7.667 7.667 7.667h53.666c4.217 0 7.667-3.45 7.667-7.667zM323.083 64.25l9.584 11.538L346.083 58.5l17.25 23h-53.666l13.416-17.25z" fill="#F7F7F7" fill-opacity=".2"/><rect y="133" width="122" height="118" rx="20" fill="#FF3385"/><path d="M96 218.333v-53.666c0-4.217-3.45-7.667-7.667-7.667H34.667C30.45 157 27 160.45 27 164.667v53.666c0 4.217 3.45 7.667 7.667 7.667h53.666c4.217 0 7.667-3.45 7.667-7.667zM48.083 197.25l9.584 11.538L71.083 191.5l17.25 23H34.667l13.416-17.25z" fill="#F7F7F7" fill-opacity=".2"/><rect y="133" width="122" height="118" rx="20" fill="#FF3385"/><path d="M96 218.333v-53.666c0-4.217-3.45-7.667-7.667-7.667H34.667C30.45 157 27 160.45 27 164.667v53.666c0 4.217 3.45 7.667 7.667 7.667h53.666c4.217 0 7.667-3.45 7.667-7.667zM48.083 197.25l9.584 11.538L71.083 191.5l17.25 23H34.667l13.416-17.25z" fill="#F7F7F7" fill-opacity=".2"/><rect x="138" y="133" width="122" height="118" rx="20" fill="#FF3385"/><path d="M234 218.333v-53.666c0-4.217-3.45-7.667-7.667-7.667h-53.666c-4.217 0-7.667 3.45-7.667 7.667v53.666c0 4.217 3.45 7.667 7.667 7.667h53.666c4.217 0 7.667-3.45 7.667-7.667zm-47.917-21.083l9.584 11.538 13.416-17.288 17.25 23h-53.666l13.416-17.25z" fill="#F7F7F7" fill-opacity=".2"/><rect x="138" y="133" width="122" height="118" rx="20" fill="#FF3385"/><path d="M234 218.333v-53.666c0-4.217-3.45-7.667-7.667-7.667h-53.666c-4.217 0-7.667 3.45-7.667 7.667v53.666c0 4.217 3.45 7.667 7.667 7.667h53.666c4.217 0 7.667-3.45 7.667-7.667zm-47.917-21.083l9.584 11.538 13.416-17.288 17.25 23h-53.666l13.416-17.25z" fill="#F7F7F7" fill-opacity=".2"/><rect x="276" y="133" width="122" height="118" rx="20" fill="#FF3385"/><path d="M371 218.333v-53.666c0-4.217-3.45-7.667-7.667-7.667h-53.666c-4.217 0-7.667 3.45-7.667 7.667v53.666c0 4.217 3.45 7.667 7.667 7.667h53.666c4.217 0 7.667-3.45 7.667-7.667zm-47.917-21.083l9.584 11.538 13.416-17.288 17.25 23h-53.666l13.416-17.25z" fill="#F7F7F7" fill-opacity=".2"/><rect x="276" y="133" width="122" height="118" rx="20" fill="#FF3385"/><path d="M371 218.333v-53.666c0-4.217-3.45-7.667-7.667-7.667h-53.666c-4.217 0-7.667 3.45-7.667 7.667v53.666c0 4.217 3.45 7.667 7.667 7.667h53.666c4.217 0 7.667-3.45 7.667-7.667zm-47.917-21.083l9.584 11.538 13.416-17.288 17.25 23h-53.666l13.416-17.25z" fill="#F7F7F7" fill-opacity=".2"/><rect y="265" width="122" height="119" rx="20" fill="#FF3385"/><path d="M96 351.333v-53.666c0-4.217-3.45-7.667-7.667-7.667H34.667C30.45 290 27 293.45 27 297.667v53.666c0 4.217 3.45 7.667 7.667 7.667h53.666c4.217 0 7.667-3.45 7.667-7.667zM48.083 330.25l9.584 11.538L71.083 324.5l17.25 23H34.667l13.416-17.25z" fill="#F7F7F7" fill-opacity=".2"/><rect y="265" width="122" height="119" rx="20" fill="#FF3385"/><path d="M96 351.333v-53.666c0-4.217-3.45-7.667-7.667-7.667H34.667C30.45 290 27 293.45 27 297.667v53.666c0 4.217 3.45 7.667 7.667 7.667h53.666c4.217 0 7.667-3.45 7.667-7.667zM48.083 330.25l9.584 11.538L71.083 324.5l17.25 23H34.667l13.416-17.25z" fill="#F7F7F7" fill-opacity=".2"/><rect x="138" y="265" width="122" height="119" rx="20" fill="#FF3385"/><path d="M234 351.333v-53.666c0-4.217-3.45-7.667-7.667-7.667h-53.666c-4.217 0-7.667 3.45-7.667 7.667v53.666c0 4.217 3.45 7.667 7.667 7.667h53.666c4.217 0 7.667-3.45 7.667-7.667zm-47.917-21.083l9.584 11.538 13.416-17.288 17.25 23h-53.666l13.416-17.25z" fill="#F7F7F7" fill-opacity=".2"/><rect x="138" y="265" width="122" height="119" rx="20" fill="#FF3385"/><path d="M234 351.333v-53.666c0-4.217-3.45-7.667-7.667-7.667h-53.666c-4.217 0-7.667 3.45-7.667 7.667v53.666c0 4.217 3.45 7.667 7.667 7.667h53.666c4.217 0 7.667-3.45 7.667-7.667zm-47.917-21.083l9.584 11.538 13.416-17.288 17.25 23h-53.666l13.416-17.25z" fill="#F7F7F7" fill-opacity=".2"/><rect x="276" y="265" width="122" height="119" rx="20" fill="#FF3385"/><path d="M371 351.333v-53.666c0-4.217-3.45-7.667-7.667-7.667h-53.666c-4.217 0-7.667 3.45-7.667 7.667v53.666c0 4.217 3.45 7.667 7.667 7.667h53.666c4.217 0 7.667-3.45 7.667-7.667zm-47.917-21.083l9.584 11.538 13.416-17.288 17.25 23h-53.666l13.416-17.25z" fill="#F7F7F7" fill-opacity=".2"/><rect x="276" y="265" width="122" height="119" rx="20" fill="#FF3385"/><path d="M371 351.333v-53.666c0-4.217-3.45-7.667-7.667-7.667h-53.666c-4.217 0-7.667 3.45-7.667 7.667v53.666c0 4.217 3.45 7.667 7.667 7.667h53.666c4.217 0 7.667-3.45 7.667-7.667zm-47.917-21.083l9.584 11.538 13.416-17.288 17.25 23h-53.666l13.416-17.25z" fill="#F7F7F7" fill-opacity=".2"/><rect x="416" width="122" height="119" rx="20" fill="#FF3385"/><path d="M512 85.333V31.667c0-4.217-3.45-7.667-7.667-7.667h-53.666C446.45 24 443 27.45 443 31.667v53.666c0 4.217 3.45 7.667 7.667 7.667h53.666c4.217 0 7.667-3.45 7.667-7.667zM464.083 64.25l9.584 11.538L487.083 58.5l17.25 23h-53.666l13.416-17.25z" fill="#F7F7F7" fill-opacity=".2"/><rect x="416" width="122" height="119" rx="20" fill="#FF3385"/><path d="M512 85.333V31.667c0-4.217-3.45-7.667-7.667-7.667h-53.666C446.45 24 443 27.45 443 31.667v53.666c0 4.217 3.45 7.667 7.667 7.667h53.666c4.217 0 7.667-3.45 7.667-7.667zM464.083 64.25l9.584 11.538L487.083 58.5l17.25 23h-53.666l13.416-17.25z" fill="#F7F7F7" fill-opacity=".2"/><rect x="416" y="133" width="122" height="118" rx="20" fill="#FF3385"/><path d="M512 218.333v-53.666c0-4.217-3.45-7.667-7.667-7.667h-53.666c-4.217 0-7.667 3.45-7.667 7.667v53.666c0 4.217 3.45 7.667 7.667 7.667h53.666c4.217 0 7.667-3.45 7.667-7.667zm-47.917-21.083l9.584 11.538 13.416-17.288 17.25 23h-53.666l13.416-17.25z" fill="#F7F7F7" fill-opacity=".2"/><rect x="416" y="133" width="122" height="118" rx="20" fill="#FF3385"/><path d="M512 218.333v-53.666c0-4.217-3.45-7.667-7.667-7.667h-53.666c-4.217 0-7.667 3.45-7.667 7.667v53.666c0 4.217 3.45 7.667 7.667 7.667h53.666c4.217 0 7.667-3.45 7.667-7.667zm-47.917-21.083l9.584 11.538 13.416-17.288 17.25 23h-53.666l13.416-17.25z" fill="#F7F7F7" fill-opacity=".2"/><rect x="416" y="265" width="122" height="119" rx="20" fill="#FF3385"/><path d="M512 351.333v-53.666c0-4.217-3.45-7.667-7.667-7.667h-53.666c-4.217 0-7.667 3.45-7.667 7.667v53.666c0 4.217 3.45 7.667 7.667 7.667h53.666c4.217 0 7.667-3.45 7.667-7.667zm-47.917-21.083l9.584 11.538 13.416-17.288 17.25 23h-53.666l13.416-17.25z" fill="#F7F7F7" fill-opacity=".2"/><rect x="416" y="265" width="122" height="119" rx="20" fill="#FF3385"/><path d="M512 351.333v-53.666c0-4.217-3.45-7.667-7.667-7.667h-53.666c-4.217 0-7.667 3.45-7.667 7.667v53.666c0 4.217 3.45 7.667 7.667 7.667h53.666c4.217 0 7.667-3.45 7.667-7.667zm-47.917-21.083l9.584 11.538 13.416-17.288 17.25 23h-53.666l13.416-17.25z" fill="#F7F7F7" fill-opacity=".2"/><path fill="#FFF" d="M477 0h61v384h-61z"/></svg>