<svg width="536" height="522" viewBox="0 0 536 522" fill="none" xmlns="http://www.w3.org/2000/svg">
<rect width="536" height="522" rx="20" fill="#91D3FF" fill-opacity="0.3"/>
<path d="M436.5 393.667V128.833C436.5 108.025 419.475 91 398.667 91H133.833C113.025 91 96 108.025 96 128.833V393.667C96 414.475 113.025 431.5 133.833 431.5H398.667C419.475 431.5 436.5 414.475 436.5 393.667ZM200.042 289.625L247.333 346.564L313.542 261.25L398.667 374.75H133.833L200.042 289.625Z" fill="#F7F7F7" fill-opacity="0.2"/>
<rect y="309" width="219" height="213" rx="20" fill="#FF3385"/>
<path d="M180 471.889V359.111C180 350.25 172.75 343 163.889 343H51.1111C42.25 343 35 350.25 35 359.111V471.889C35 480.75 42.25 488 51.1111 488H163.889C172.75 488 180 480.75 180 471.889ZM79.3056 427.583L99.4444 451.831L127.639 415.5L163.889 463.833H51.1111L79.3056 427.583Z" fill="#F7F7F7" fill-opacity="0.2"/>
<path d="M63.744 421.384C65.856 422.088 67.472 423.144 68.592 424.552C69.744 425.96 70.32 427.656 70.32 429.64C70.32 431.592 69.792 433.304 68.736 434.776C67.68 436.216 66.16 437.336 64.176 438.136C62.224 438.904 59.92 439.288 57.264 439.288C53.232 439.288 50.064 438.424 47.76 436.696C45.456 434.968 44.304 432.616 44.304 429.64C44.304 427.624 44.848 425.928 45.936 424.552C47.056 423.144 48.672 422.088 50.784 421.384C49.056 420.712 47.744 419.752 46.848 418.504C45.952 417.224 45.504 415.72 45.504 413.992C45.504 411.272 46.56 409.112 48.672 407.512C50.816 405.912 53.68 405.112 57.264 405.112C59.632 405.112 61.696 405.48 63.456 406.216C65.248 406.92 66.64 407.944 67.632 409.288C68.624 410.632 69.12 412.2 69.12 413.992C69.12 415.72 68.656 417.224 67.728 418.504C66.8 419.752 65.472 420.712 63.744 421.384ZM48.96 414.088C48.96 415.944 49.696 417.416 51.168 418.504C52.64 419.592 54.672 420.136 57.264 420.136C59.856 420.136 61.888 419.592 63.36 418.504C64.864 417.416 65.616 415.96 65.616 414.136C65.616 412.248 64.848 410.76 63.312 409.672C61.808 408.584 59.792 408.04 57.264 408.04C54.704 408.04 52.672 408.584 51.168 409.672C49.696 410.76 48.96 412.232 48.96 414.088ZM57.264 436.36C60.24 436.36 62.56 435.752 64.224 434.536C65.92 433.32 66.768 431.672 66.768 429.592C66.768 427.512 65.92 425.88 64.224 424.696C62.56 423.48 60.24 422.872 57.264 422.872C54.32 422.872 52 423.48 50.304 424.696C48.64 425.88 47.808 427.512 47.808 429.592C47.808 431.704 48.64 433.368 50.304 434.584C51.968 435.768 54.288 436.36 57.264 436.36ZM86.3374 439.288C83.7454 439.288 81.4254 438.6 79.3774 437.224C77.3614 435.848 75.7774 433.88 74.6254 431.32C73.5054 428.728 72.9454 425.688 72.9454 422.2C72.9454 418.712 73.5054 415.688 74.6254 413.128C75.7774 410.536 77.3614 408.552 79.3774 407.176C81.4254 405.8 83.7454 405.112 86.3374 405.112C88.9294 405.112 91.2334 405.8 93.2494 407.176C95.2974 408.552 96.8974 410.536 98.0494 413.128C99.2014 415.688 99.7774 418.712 99.7774 422.2C99.7774 425.688 99.2014 428.728 98.0494 431.32C96.8974 433.88 95.2974 435.848 93.2494 437.224C91.2334 438.6 88.9294 439.288 86.3374 439.288ZM86.3374 436.12C88.2894 436.12 90.0014 435.576 91.4734 434.488C92.9774 433.4 94.1454 431.816 94.9774 429.736C95.8094 427.656 96.2254 425.144 96.2254 422.2C96.2254 419.256 95.8094 416.744 94.9774 414.664C94.1454 412.584 92.9774 411 91.4734 409.912C90.0014 408.824 88.2894 408.28 86.3374 408.28C84.3854 408.28 82.6574 408.824 81.1534 409.912C79.6814 411 78.5294 412.584 77.6974 414.664C76.8654 416.744 76.4494 419.256 76.4494 422.2C76.4494 425.144 76.8654 427.656 77.6974 429.736C78.5294 431.816 79.6814 433.4 81.1534 434.488C82.6574 435.576 84.3854 436.12 86.3374 436.12ZM125.017 428.872L121.417 432.424V439H113.929V403.384H121.417V423.544L132.361 413.176H141.289L130.537 424.12L142.249 439H133.177L125.017 428.872ZM158.721 412.792C161.121 412.792 163.297 413.352 165.249 414.472C167.233 415.56 168.785 417.112 169.905 419.128C171.025 421.112 171.585 423.432 171.585 426.088C171.585 428.744 171.025 431.08 169.905 433.096C168.785 435.08 167.233 436.632 165.249 437.752C163.297 438.84 161.121 439.384 158.721 439.384C155.169 439.384 152.465 438.264 150.609 436.024V439H143.457V403.384H150.945V415.912C152.833 413.832 155.425 412.792 158.721 412.792ZM157.425 433.24C159.345 433.24 160.913 432.6 162.129 431.32C163.377 430.008 164.001 428.264 164.001 426.088C164.001 423.912 163.377 422.184 162.129 420.904C160.913 419.592 159.345 418.936 157.425 418.936C155.505 418.936 153.921 419.592 152.673 420.904C151.457 422.184 150.849 423.912 150.849 426.088C150.849 428.264 151.457 430.008 152.673 431.32C153.921 432.6 155.505 433.24 157.425 433.24Z" fill="white"/>
</svg>
