<svg width="536" height="522" fill="none" xmlns="http://www.w3.org/2000/svg"><rect width="536" height="522" rx="20" fill="#91D3FF" fill-opacity=".3"/><path d="M436.5 393.667V128.833C436.5 108.025 419.475 91 398.667 91H133.833C113.025 91 96 108.025 96 128.833v264.834c0 20.808 17.025 37.833 37.833 37.833h264.834c20.808 0 37.833-17.025 37.833-37.833zM200.042 289.625l47.291 56.939 66.209-85.314 85.125 113.5H133.833l66.209-85.125z" fill="#F7F7F7" fill-opacity=".2"/><rect y="309" width="219" height="213" rx="20" fill="#FF3385"/><path d="M180 471.889V359.111c0-8.861-7.25-16.111-16.111-16.111H51.111C42.25 343 35 350.25 35 359.111v112.778C35 480.75 42.25 488 51.111 488H163.89c8.861 0 16.111-7.25 16.111-16.111zM79.306 427.583l20.138 24.248L127.64 415.5l36.25 48.333H51.111l28.195-36.25z" fill="#F7F7F7" fill-opacity=".2"/><path d="M63.744 421.384c2.112.704 3.728 1.76 4.848 3.168 1.152 1.408 1.728 3.104 1.728 5.088 0 1.952-.528 3.664-1.584 5.136-1.056 1.44-2.576 2.56-4.56 3.36-1.952.768-4.256 1.152-6.912 1.152-4.032 0-7.2-.864-9.504-2.592-2.304-1.728-3.456-4.08-3.456-7.056 0-2.016.544-3.712 1.632-5.088 1.12-1.408 2.736-2.464 4.848-3.168-1.728-.672-3.04-1.632-3.936-2.88-.896-1.28-1.344-2.784-1.344-4.512 0-2.72 1.056-4.88 3.168-6.48 2.144-1.6 5.008-2.4 8.592-2.4 2.368 0 4.432.368 6.192 1.104 1.792.704 3.184 1.728 4.176 3.072s1.488 2.912 1.488 4.704c0 1.728-.464 3.232-1.392 4.512-.928 1.248-2.256 2.208-3.984 2.88zm-14.784-7.296c0 1.856.736 3.328 2.208 4.416 1.472 1.088 3.504 1.632 6.096 1.632s4.624-.544 6.096-1.632c1.504-1.088 2.256-2.544 2.256-4.368 0-1.888-.768-3.376-2.304-4.464-1.504-1.088-3.52-1.632-6.048-1.632-2.56 0-4.592.544-6.096 1.632-1.472 1.088-2.208 2.56-2.208 4.416zm8.304 22.272c2.976 0 5.296-.608 6.96-1.824 1.696-1.216 2.544-2.864 2.544-4.944s-.848-3.712-2.544-4.896c-1.664-1.216-3.984-1.824-6.96-1.824-2.944 0-5.264.608-6.96 1.824-1.664 1.184-2.496 2.816-2.496 4.896 0 2.112.832 3.776 2.496 4.992 1.664 1.184 3.984 1.776 6.96 1.776zm29.073 2.928c-2.592 0-4.912-.688-6.96-2.064-2.016-1.376-3.6-3.344-4.752-5.904-1.12-2.592-1.68-5.632-1.68-9.12 0-3.488.56-6.512 1.68-9.072 1.152-2.592 2.736-4.576 4.752-5.952 2.048-1.376 4.368-2.064 6.96-2.064 2.592 0 4.896.688 6.912 2.064 2.048 1.376 3.648 3.36 4.8 5.952 1.152 2.56 1.728 5.584 1.728 9.072 0 3.488-.576 6.528-1.728 9.12-1.152 2.56-2.752 4.528-4.8 5.904-2.016 1.376-4.32 2.064-6.912 2.064zm0-3.168c1.952 0 3.664-.544 5.136-1.632 1.504-1.088 2.672-2.672 3.504-4.752.832-2.08 1.248-4.592 1.248-7.536s-.416-5.456-1.248-7.536c-.832-2.08-2-3.664-3.504-4.752-1.472-1.088-3.184-1.632-5.136-1.632s-3.68.544-5.184 1.632c-1.472 1.088-2.624 2.672-3.456 4.752-.832 2.08-1.248 4.592-1.248 7.536s.416 5.456 1.248 7.536c.832 2.08 1.984 3.664 3.456 4.752 1.504 1.088 3.232 1.632 5.184 1.632zm38.68-7.248l-3.6 3.552V439h-7.488v-35.616h7.488v20.16l10.944-10.368h8.928l-10.752 10.944L142.249 439h-9.072l-8.16-10.128zm33.704-16.08c2.4 0 4.576.56 6.528 1.68 1.984 1.088 3.536 2.64 4.656 4.656 1.12 1.984 1.68 4.304 1.68 6.96 0 2.656-.56 4.992-1.68 7.008a12.057 12.057 0 01-4.656 4.656c-1.952 1.088-4.128 1.632-6.528 1.632-3.552 0-6.256-1.12-8.112-3.36V439h-7.152v-35.616h7.488v12.528c1.888-2.08 4.48-3.12 7.776-3.12zm-1.296 20.448c1.92 0 3.488-.64 4.704-1.92 1.248-1.312 1.872-3.056 1.872-5.232s-.624-3.904-1.872-5.184c-1.216-1.312-2.784-1.968-4.704-1.968s-3.504.656-4.752 1.968c-1.216 1.28-1.824 3.008-1.824 5.184s.608 3.92 1.824 5.232c1.248 1.28 2.832 1.92 4.752 1.92z" fill="#fff"/><rect width="536" height="522" rx="20" fill="#91D3FF" fill-opacity=".3"/><path d="M436.5 393.667V128.833C436.5 108.025 419.475 91 398.667 91H133.833C113.025 91 96 108.025 96 128.833v264.834c0 20.808 17.025 37.833 37.833 37.833h264.834c20.808 0 37.833-17.025 37.833-37.833zM200.042 289.625l47.291 56.939 66.209-85.314 85.125 113.5H133.833l66.209-85.125z" fill="#F7F7F7" fill-opacity=".2"/><rect y="309" width="219" height="213" rx="20" fill="#FF3385"/><path d="M180 471.889V359.111c0-8.861-7.25-16.111-16.111-16.111H51.111C42.25 343 35 350.25 35 359.111v112.778C35 480.75 42.25 488 51.111 488H163.89c8.861 0 16.111-7.25 16.111-16.111zM79.306 427.583l20.138 24.248L127.64 415.5l36.25 48.333H51.111l28.195-36.25z" fill="#F7F7F7" fill-opacity=".2"/><path d="M64.744 390.384c2.112.704 3.728 1.76 4.848 3.168 1.152 1.408 1.728 3.104 1.728 5.088 0 1.952-.528 3.664-1.584 5.136-1.056 1.44-2.576 2.56-4.56 3.36-1.952.768-4.256 1.152-6.912 1.152-4.032 0-7.2-.864-9.504-2.592-2.304-1.728-3.456-4.08-3.456-7.056 0-2.016.544-3.712 1.632-5.088 1.12-1.408 2.736-2.464 4.848-3.168-1.728-.672-3.04-1.632-3.936-2.88-.896-1.28-1.344-2.784-1.344-4.512 0-2.72 1.056-4.88 3.168-6.48 2.144-1.6 5.008-2.4 8.592-2.4 2.368 0 4.432.368 6.192 1.104 1.792.704 3.184 1.728 4.176 3.072s1.488 2.912 1.488 4.704c0 1.728-.464 3.232-1.392 4.512-.928 1.248-2.256 2.208-3.984 2.88zm-14.784-7.296c0 1.856.736 3.328 2.208 4.416 1.472 1.088 3.504 1.632 6.096 1.632s4.624-.544 6.096-1.632c1.504-1.088 2.256-2.544 2.256-4.368 0-1.888-.768-3.376-2.304-4.464-1.504-1.088-3.52-1.632-6.048-1.632-2.56 0-4.592.544-6.096 1.632-1.472 1.088-2.208 2.56-2.208 4.416zm8.304 22.272c2.976 0 5.296-.608 6.96-1.824 1.696-1.216 2.544-2.864 2.544-4.944s-.848-3.712-2.544-4.896c-1.664-1.216-3.984-1.824-6.96-1.824-2.944 0-5.264.608-6.96 1.824-1.664 1.184-2.496 2.816-2.496 4.896 0 2.112.832 3.776 2.496 4.992 1.664 1.184 3.984 1.776 6.96 1.776zm29.073 2.928c-2.592 0-4.912-.688-6.96-2.064-2.016-1.376-3.6-3.344-4.752-5.904-1.12-2.592-1.68-5.632-1.68-9.12 0-3.488.56-6.512 1.68-9.072 1.152-2.592 2.736-4.576 4.752-5.952 2.048-1.376 4.368-2.064 6.96-2.064 2.592 0 4.896.688 6.912 2.064 2.048 1.376 3.648 3.36 4.8 5.952 1.152 2.56 1.728 5.584 1.728 9.072 0 3.488-.576 6.528-1.728 9.12-1.152 2.56-2.752 4.528-4.8 5.904-2.016 1.376-4.32 2.064-6.912 2.064zm0-3.168c1.952 0 3.664-.544 5.136-1.632 1.504-1.088 2.672-2.672 3.504-4.752.832-2.08 1.248-4.592 1.248-7.536s-.416-5.456-1.248-7.536c-.832-2.08-2-3.664-3.504-4.752-1.472-1.088-3.184-1.632-5.136-1.632s-3.68.544-5.184 1.632c-1.472 1.088-2.624 2.672-3.456 4.752-.832 2.08-1.248 4.592-1.248 7.536s.416 5.456 1.248 7.536c.832 2.08 1.984 3.664 3.456 4.752 1.504 1.088 3.232 1.632 5.184 1.632zm38.68-7.248l-3.6 3.552V408h-7.488v-35.616h7.488v20.16l10.944-10.368h8.928l-10.752 10.944L143.249 408h-9.072l-8.16-10.128zm33.704-16.08c2.4 0 4.576.56 6.528 1.68 1.984 1.088 3.536 2.64 4.656 4.656 1.12 1.984 1.68 4.304 1.68 6.96 0 2.656-.56 4.992-1.68 7.008a12.057 12.057 0 01-4.656 4.656c-1.952 1.088-4.128 1.632-6.528 1.632-3.552 0-6.256-1.12-8.112-3.36V408h-7.152v-35.616h7.488v12.528c1.888-2.08 4.48-3.12 7.776-3.12zm-1.296 20.448c1.92 0 3.488-.64 4.704-1.92 1.248-1.312 1.872-3.056 1.872-5.232s-.624-3.904-1.872-5.184c-1.216-1.312-2.784-1.968-4.704-1.968s-3.504.656-4.752 1.968c-1.216 1.28-1.824 3.008-1.824 5.184s.608 3.92 1.824 5.232c1.248 1.28 2.832 1.92 4.752 1.92z" fill="#fff"/><path d="M149.616 171.8V239h-6.912v-61.056h-15.84V171.8h22.752zm16.928 67.68c-1.408 0-2.624-.512-3.648-1.536-.96-1.024-1.44-2.272-1.44-3.744 0-1.472.48-2.688 1.44-3.648 1.024-1.024 2.24-1.536 3.648-1.536s2.624.512 3.648 1.536c1.024.96 1.536 2.176 1.536 3.648s-.512 2.72-1.536 3.744-2.24 1.536-3.648 1.536zm66.741-18.144h-13.44V239h-6.912v-17.664h-37.92v-4.992l35.616-44.544h7.68l-34.368 43.392h29.184V199.64h6.72v15.552h13.44v6.144zm90.897-34.752c6.464 0 11.584 1.92 15.36 5.76 3.84 3.776 5.76 9.472 5.76 17.088V239h-14.976v-27.264c0-4.096-.864-7.136-2.592-9.12-1.664-2.048-4.064-3.072-7.2-3.072-3.52 0-6.304 1.152-8.352 3.456-2.048 2.24-3.072 5.6-3.072 10.08V239h-14.976v-27.264c0-8.128-3.264-12.192-9.792-12.192-3.456 0-6.208 1.152-8.256 3.456-2.048 2.24-3.072 5.6-3.072 10.08V239h-14.976v-51.648h14.304v5.952c1.92-2.176 4.256-3.84 7.008-4.992 2.816-1.152 5.888-1.728 9.216-1.728 3.648 0 6.944.736 9.888 2.208 2.944 1.408 5.312 3.488 7.104 6.24 2.112-2.688 4.768-4.768 7.968-6.24 3.264-1.472 6.816-2.208 10.656-2.208zm54.992 0c4.8 0 9.152 1.12 13.056 3.36 3.968 2.176 7.072 5.28 9.312 9.312 2.24 3.968 3.36 8.608 3.36 13.92 0 5.312-1.12 9.984-3.36 14.016-2.24 3.968-5.344 7.072-9.312 9.312-3.904 2.176-8.256 3.264-13.056 3.264-7.104 0-12.512-2.24-16.224-6.72V239h-14.304v-71.232h14.976v25.056c3.776-4.16 8.96-6.24 15.552-6.24zm-2.592 40.896c3.84 0 6.976-1.28 9.408-3.84 2.496-2.624 3.744-6.112 3.744-10.464s-1.248-7.808-3.744-10.368c-2.432-2.624-5.568-3.936-9.408-3.936s-7.008 1.312-9.504 3.936c-2.432 2.56-3.648 6.016-3.648 10.368s1.216 7.84 3.648 10.464c2.496 2.56 5.664 3.84 9.504 3.84z" fill="#003152" fill-opacity=".8"/></svg>