<svg xmlns="http://www.w3.org/2000/svg" fill="none" viewBox="0 0 536 522"><rect width="536" height="522" fill="#91D3FF" fill-opacity=".3" rx="20"/><path fill="#F7F7F7" fill-opacity=".2" d="M436.5 393.7V128.8A38 38 0 00398.7 91H133.8A38 38 0 0096 128.8v264.9a38 38 0 0037.8 37.8h264.9a38 38 0 0037.8-37.8zM200 289.7l47.3 56.9 66.2-85.3 85.2 113.4H133.8l66.2-85z"/><rect width="219" height="213" y="309" fill="#FF3385" rx="20"/><path fill="#F7F7F7" fill-opacity=".2" d="M180 471.9V359c0-8.9-7.3-16.1-16.1-16.1H51c-8.9 0-16.1 7.3-16.1 16.1V472c0 8.9 7.3 16.1 16.1 16.1H164c8.9 0 16.1-7.3 16.1-16.1zM79.3 427.6l20.1 24.2 28.2-36.3 36.3 48.3H51l28.2-36.2z"/><path fill="#fff" d="M63.7 421.4a10 10 0 014.9 3.2 7.8 7.8 0 011.7 5c0 2-.5 3.7-1.6 5.2-1 1.4-2.5 2.5-4.5 3.3-2 .8-4.3 1.2-7 1.2-4 0-7.1-.9-9.4-2.6a8.3 8.3 0 01-3.5-7 8 8 0 011.6-5.1 10 10 0 014.9-3.2c-1.7-.7-3-1.6-4-2.9a7.7 7.7 0 01-1.3-4.5c0-2.7 1-4.9 3.2-6.5a14 14 0 018.6-2.4c2.3 0 4.4.4 6.2 1.1 1.7.7 3.1 1.7 4.1 3s1.5 3 1.5 4.8c0 1.7-.4 3.2-1.4 4.5a8.8 8.8 0 01-4 2.9zM49 414c0 1.8.7 3.3 2.2 4.4 1.4 1 3.5 1.6 6 1.6s4.7-.5 6.2-1.6c1.5-1 2.2-2.5 2.2-4.4 0-1.9-.8-3.3-2.3-4.4-1.5-1.1-3.5-1.7-6-1.7-2.6 0-4.6.6-6.1 1.7A5.2 5.2 0 0049 414zm8.3 22.3c3 0 5.3-.6 7-1.9 1.6-1.2 2.5-2.8 2.5-5s-.9-3.6-2.6-4.8c-1.6-1.2-4-1.8-7-1.8-2.9 0-5.2.6-6.9 1.8a5.7 5.7 0 00-2.5 4.9c0 2.1.8 3.8 2.5 5 1.7 1.2 4 1.8 7 1.8zm29 2.9c-2.6 0-4.9-.7-7-2-2-1.5-3.5-3.4-4.7-6a22.9 22.9 0 01-1.7-9.1c0-3.5.6-6.5 1.7-9 1.2-2.7 2.8-4.6 4.8-6 2-1.4 4.3-2 7-2 2.5 0 4.8.6 6.8 2 2.1 1.4 3.7 3.3 4.8 6a22 22 0 011.8 9c0 3.5-.6 6.5-1.8 9.1a13.6 13.6 0 01-4.8 6 12 12 0 01-6.9 2zm0-3.2c2 0 3.7-.5 5.2-1.6s2.6-2.7 3.5-4.8c.8-2 1.2-4.6 1.2-7.5s-.4-5.5-1.2-7.5c-.9-2.1-2-3.7-3.5-4.8-1.5-1-3.2-1.6-5.2-1.6s-3.6.5-5.1 1.6c-1.5 1.1-2.7 2.7-3.5 4.8-.8 2-1.3 4.6-1.3 7.5s.5 5.5 1.3 7.5c.8 2.1 2 3.7 3.5 4.8 1.5 1 3.2 1.6 5.1 1.6zM125 429l-3.6 3.5v6.6H114v-35.6h7.5v20.1l11-10.3h8.9l-10.8 11 11.7 14.8h-9l-8.2-10.1zm33.7-16.1c2.4 0 4.6.6 6.5 1.7 2 1 3.6 2.6 4.7 4.6a14 14 0 011.7 7c0 2.6-.6 5-1.7 7a12 12 0 01-4.7 4.7c-1.9 1-4 1.6-6.5 1.6-3.5 0-6.2-1.1-8-3.4v3h-7.2v-35.6h7.4v12.5a10 10 0 017.8-3.1zm-1.3 20.4c2 0 3.5-.6 4.7-1.9 1.3-1.3 1.9-3 1.9-5.2s-.6-4-1.9-5.2c-1.2-1.3-2.8-2-4.7-2s-3.5.7-4.7 2c-1.2 1.3-1.9 3-1.9 5.2s.7 4 1.9 5.2c1.2 1.3 2.8 2 4.7 2z"/><rect width="536" height="522" fill="#91D3FF" fill-opacity=".3" rx="20"/><path fill="#F7F7F7" fill-opacity=".2" d="M436.5 393.7V128.8A38 38 0 00398.7 91H133.8A38 38 0 0096 128.8v264.9a38 38 0 0037.8 37.8h264.9a38 38 0 0037.8-37.8zM200 289.7l47.3 56.9 66.2-85.3 85.2 113.4H133.8l66.2-85z"/><rect width="219" height="213" y="309" fill="#FF3385" rx="20"/><path fill="#F7F7F7" fill-opacity=".2" d="M180 471.9V359c0-8.9-7.3-16.1-16.1-16.1H51c-8.9 0-16.1 7.3-16.1 16.1V472c0 8.9 7.3 16.1 16.1 16.1H164c8.9 0 16.1-7.3 16.1-16.1zM79.3 427.6l20.1 24.2 28.2-36.3 36.3 48.3H51l28.2-36.2z"/><path fill="#fff" d="M64.7 390.4a10 10 0 014.9 3.2 7.8 7.8 0 011.7 5c0 2-.5 3.7-1.6 5.2-1 1.4-2.5 2.5-4.5 3.3-2 .8-4.3 1.2-7 1.2-4 0-7.1-.9-9.4-2.6a8.3 8.3 0 01-3.5-7 8 8 0 011.6-5.1 10 10 0 014.9-3.2c-1.7-.7-3-1.6-4-2.9a7.7 7.7 0 01-1.3-4.5c0-2.7 1-4.9 3.2-6.5a14 14 0 018.6-2.4c2.3 0 4.4.4 6.2 1.1 1.7.7 3.1 1.7 4.1 3s1.5 3 1.5 4.8c0 1.7-.4 3.2-1.4 4.5a8.8 8.8 0 01-4 2.9zM50 383c0 1.8.7 3.3 2.2 4.4 1.4 1 3.5 1.6 6 1.6s4.7-.5 6.2-1.6c1.5-1 2.2-2.5 2.2-4.4 0-1.9-.8-3.3-2.3-4.4-1.5-1.1-3.5-1.7-6-1.7-2.6 0-4.6.6-6.1 1.7A5.2 5.2 0 0050 383zm8.3 22.3c3 0 5.3-.6 7-1.9 1.6-1.2 2.5-2.8 2.5-5s-.9-3.6-2.6-4.8c-1.6-1.2-4-1.8-7-1.8-2.9 0-5.2.6-6.9 1.8a5.7 5.7 0 00-2.5 4.9c0 2.1.8 3.8 2.5 5 1.7 1.2 4 1.8 7 1.8zm29 2.9c-2.6 0-4.9-.7-7-2-2-1.5-3.5-3.4-4.7-6a22.9 22.9 0 01-1.7-9.1c0-3.5.6-6.5 1.7-9 1.2-2.7 2.8-4.6 4.8-6 2-1.4 4.3-2 7-2 2.5 0 4.8.6 6.8 2 2.1 1.4 3.7 3.3 4.8 6a22 22 0 011.8 9c0 3.5-.6 6.5-1.8 9.1a13.6 13.6 0 01-4.8 6 12 12 0 01-6.9 2zm0-3.2c2 0 3.7-.5 5.2-1.6s2.6-2.7 3.5-4.8c.8-2 1.2-4.6 1.2-7.5s-.4-5.5-1.2-7.5c-.9-2.1-2-3.7-3.5-4.8-1.5-1-3.2-1.6-5.2-1.6s-3.6.5-5.1 1.6c-1.5 1.1-2.7 2.7-3.5 4.8-.8 2-1.3 4.6-1.3 7.5s.5 5.5 1.3 7.5c.8 2.1 2 3.7 3.5 4.8 1.5 1 3.2 1.6 5.1 1.6zM126 398l-3.6 3.5v6.6H115v-35.6h7.5v20.1l11-10.3h8.9l-10.8 11 11.7 14.8h-9l-8.2-10.1zm33.7-16.1c2.4 0 4.6.6 6.5 1.7 2 1 3.6 2.6 4.7 4.6a14 14 0 011.7 7c0 2.6-.6 5-1.7 7a12 12 0 01-4.7 4.7c-1.9 1-4 1.6-6.5 1.6-3.5 0-6.2-1.1-8-3.4v3h-7.2v-35.6h7.4v12.5a10 10 0 017.8-3.1zm-1.3 20.4c2 0 3.5-.6 4.7-1.9 1.3-1.3 1.9-3 1.9-5.2s-.6-4-1.9-5.2c-1.2-1.3-2.8-2-4.7-2s-3.5.7-4.7 2c-1.2 1.3-1.9 3-1.9 5.2s.7 4 1.9 5.2c1.2 1.3 2.8 2 4.7 2z"/><path fill="#003152" fill-opacity=".8" d="M149.6 171.8V239h-6.9v-61h-15.8v-6.2h22.7zm17 67.7a5 5 0 01-3.7-1.6c-1-1-1.4-2.2-1.4-3.7a5 5 0 011.4-3.6c1-1 2.2-1.6 3.6-1.6s2.7.5 3.7 1.6c1 1 1.5 2.1 1.5 3.6s-.5 2.7-1.5 3.7-2.2 1.6-3.7 1.6zm66.7-18.2h-13.5V239H213v-17.7H175v-5l35.6-44.5h7.7L184 215.2h29.2v-15.6h6.7v15.6h13.5v6.1zm90.9-34.7c6.4 0 11.6 1.9 15.3 5.7 3.9 3.8 5.8 9.5 5.8 17.1V239h-15v-27.3c0-4-.8-7.1-2.6-9-1.6-2.1-4-3.2-7.2-3.2-3.5 0-6.3 1.2-8.3 3.5-2 2.2-3 5.6-3 10v26h-15v-27.3c0-8-3.3-12.2-9.9-12.2-3.4 0-6.2 1.2-8.2 3.5-2 2.2-3 5.6-3 10v26h-15v-51.6h14.2v5.9a19 19 0 017-5 24.1 24.1 0 0119.2.5c2.9 1.4 5.3 3.5 7 6.2 2.2-2.7 4.8-4.7 8-6.2 3.3-1.5 6.8-2.2 10.7-2.2zm55 0c4.8 0 9.1 1.1 13 3.3 4 2.2 7.1 5.3 9.3 9.4 2.3 4 3.4 8.6 3.4 13.9 0 5.3-1.1 10-3.4 14-2.2 4-5.3 7-9.3 9.3a26.4 26.4 0 01-13 3.3c-7.1 0-12.5-2.3-16.2-6.8v6h-14.4v-71.2h15v25a20 20 0 0115.6-6.2zm-2.6 40.9c3.8 0 7-1.3 9.4-3.9 2.5-2.6 3.7-6 3.7-10.4s-1.2-7.8-3.7-10.4c-2.4-2.6-5.6-4-9.4-4s-7 1.4-9.5 4-3.7 6-3.7 10.4 1.2 7.8 3.7 10.4c2.5 2.6 5.6 3.9 9.5 3.9z"/></svg>