<svg xmlns="http://www.w3.org/2000/svg" width="100" height="100">
  <defs>
    <clipPath id="b">
      <path transform="translate(79 22)" fill="#fff" stroke="#707070" d="M0 0h45v91H0z"/>
    </clipPath>
    <clipPath id="a">
      <path d="M0 0h100v100H0z"/>
    </clipPath>
  </defs>
  <g clip-path="url(#a)">
    <path fill="none" stroke="#fff" stroke-linecap="round" stroke-width="5" d="M50 4v92"/>
    <g transform="translate(-29 -22)" clip-path="url(#b)">
      <g transform="translate(41 32)" fill="none" stroke="#fff" stroke-width="5">
        <circle cx="38" cy="38" r="38" stroke="none"/>
        <circle cx="38" cy="38" r="35.5"/>
      </g>
    </g>
    <path d="M37 86v-3H26v-8h-8V65h-5V55h9v10h7v8h8v8h11v5zM9 55V41h9v14zm4-14V31h9v10zm5-10V21h8v-8h11v-3h11v5H37v8h-8v8z" fill="#fff"/>
  </g>
</svg>
