<svg xmlns="http://www.w3.org/2000/svg" width="76" height="102">
    <defs>
      <clipPath id="b">
        <path data-name="Rectangle 106" transform="translate(79 22)" fill="#000" stroke="#707070" d="M0 0h45v91H0z"/>
      </clipPath>
      <clipPath id="a">
        <path d="M0 0h76v102H0z"/>
      </clipPath>
    </defs>
    <g clip-path="url(#a)">
      <path fill="#000" d="M0 0h76v102H0z"/>
      <path fill="none" stroke="#fff" stroke-linecap="round" stroke-width="5" d="M37.5 2.5v97"/>
      <g transform="translate(-42 -19)" clip-path="url(#b)">
        <g transform="translate(41 32)" fill="none" stroke="#fff" stroke-width="5">
          <circle cx="38" cy="38" r="38" stroke="none"/>
          <circle cx="38" cy="38" r="35.5"/>
        </g>
      </g>
  <path d="M70 48h5v5h-5z" fill="#fff" />
      <path d="M29 13h11v5H29z" fill="#fff" />
      <path d="M29 83h11v5H29z" fill="#fff" />
      <path d="M19 14h10v5H19z" fill="#fff" />
      <path d="M19 82h10v5H19z" fill="#fff" />
      <path d="M12 18h9v5h-9z" fill="#fff" />
      <path d="M12 78h9v5h-9z" fill="#fff" />
      <path d="M8 23h7v5H8z" fill="#fff" />
      <path d="M8 73h7v5H8z" fill="#fff" />
      <path d="M5 28h6v5H5z" fill="#fff" />
      <path d="M5 68h6v5H5z" fill="#fff" />
      <path d="M2 33h6v5H2z" fill="#fff" />
      <path d="M2 63h6v5H2z" fill="#fff" />
      <path d="M1 38h5v5H1z" fill="#fff" />
      <path d="M1 58h5v5H1z" fill="#fff" />
      <path d="M0 43h5v15H0z" fill="#fff" />
  </g>
  </svg>
